# xmcd CD database file
#
# Track frame offsets:
#	150
#	14883
#	28763
#	45188
#	60838
#	74128
#	89729
#	100850
#	114939
#	129275
#	144148
#	163470
#
# Disc length: 2379 seconds
#
# Revision: 0
# Processed by: cddbd v1.5.2PL0 Copyright (c) Steve Scherf et al.
# Submitted via: CDex 1.51
#
DISCID=a209490c
DTITLE=Black Patti - No Milk No Sugar
DYEAR=2015
DGENRE=Blues
TTITLE0=Morning Train
TTITLE1=Jelly Roll Swing
TTITLE2=You Got To Take Sick And Die Some Of These Days
TTITLE3=The New Early In The Morning
TTITLE4=Busy Bootin'
TTITLE5=Future Blues
TTITLE6=Black Patti Boogie
TTITLE7=Please Baby
TTITLE8=I`m So Worried About My Baby
TTITLE9=The New Shake That Thing
TTITLE10=Big Mama`s Door
TTITLE11=I`m Goin' Home
EXTD=YEAR: 2015
EXTT0=
EXTT1=
EXTT2=
EXTT3=
EXTT4=
EXTT5=
EXTT6=
EXTT7=
EXTT8=
EXTT9=
EXTT10=
EXTT11=
PLAYORDER=
